<svg version="1.1" viewBox="0.0 0.0 960.0 56.69291338582677" fill="none" stroke="none" stroke-linecap="square" stroke-miterlimit="10" xmlns:xlink="http://www.w3.org/1999/xlink" xmlns="http://www.w3.org/2000/svg"><clipPath id="p.0"><path d="m0 0l960.0 0l0 56.692913l-960.0 0l0 -56.692913z" clip-rule="nonzero"/></clipPath><g clip-path="url(#p.0)"><path fill="#000000" fill-opacity="0.0" d="m0 0l960.0 0l0 56.692913l-960.0 0z" fill-rule="evenodd"/><path fill="#000000" fill-opacity="0.0" d="m210.75107 5.5038905l205.6063 0l0 49.354332l-205.6063 0z" fill-rule="evenodd"/><path fill="#000000" d="m234.90732 28.029514q0 2.71875 -1.015625 4.5625q-1.0 1.828125 -2.90625 2.75q-1.90625 0.921875 -4.625 0.921875l-4.4375 0l0 -16.171875l4.9375 0q2.46875 0 4.265625 0.90625q1.8125 0.890625 2.796875 2.65625q0.984375 1.765625 0.984375 4.375zm-2.375 0.0625q0 -2.078125 -0.6875 -3.421875q-0.671875 -1.359375 -1.984375 -2.015625q-1.296875 -0.65625 -3.1875 -0.65625l-2.484375 0l0 12.34375l2.09375 0q3.125 0 4.6875 -1.5625q1.5625 -1.578125 1.5625 -4.6875zm10.418182 -4.234375q1.59375 0 2.734375 0.6875q1.140625 0.671875 1.75 1.90625q0.609375 1.234375 0.609375 2.921875l0 1.265625l-8.28125 0q0.03125 1.953125 1.0 3.0q0.984375 1.046875 2.734375 1.046875q1.171875 0 2.078125 -0.21875q0.90625 -0.234375 1.875 -0.65625l0 1.859375q-0.921875 0.421875 -1.84375 0.609375q-0.921875 0.203125 -2.203125 0.203125q-1.765625 0 -3.109375 -0.703125q-1.328125 -0.703125 -2.078125 -2.09375q-0.734375 -1.390625 -0.734375 -3.421875q0 -2.015625 0.671875 -3.453125q0.6875 -1.4375 1.90625 -2.1875q1.234375 -0.765625 2.890625 -0.765625zm-0.015625 1.71875q-1.34375 0 -2.171875 0.890625q-0.8125 0.875 -0.953125 2.5l6.0 0q-0.015625 -1.0 -0.328125 -1.765625q-0.3125 -0.765625 -0.9375 -1.1875q-0.625 -0.4375 -1.609375 -0.4375zm14.122314 -1.71875q2.21875 0 3.546875 1.578125q1.34375 1.5625 1.34375 4.703125q0 2.078125 -0.625 3.484375q-0.609375 1.40625 -1.71875 2.140625q-1.109375 0.71875 -2.609375 0.71875q-0.9375 0 -1.6562347 -0.25q-0.703125 -0.25 -1.203125 -0.65625q-0.5 -0.421875 -0.84375 -0.890625l-0.140625 0q0.046875 0.421875 0.09375 1.0q0.046875 0.5625 0.046875 1.015625l0 4.984375l-2.234375 0l0 -17.609375l1.828125 0l0.296875 1.75l0.109375 0q0.34375 -0.546875 0.84375 -0.984375q0.5 -0.453125 1.21875 -0.71875q0.73435974 -0.265625 1.7031097 -0.265625zm-0.515625 1.828125q-1.1718597 0 -1.8749847 0.46875q-0.703125 0.453125 -1.03125 1.359375q-0.3125 0.90625 -0.34375 2.28125l0 0.34375q0 1.46875 0.3125 2.46875q0.3125 1.0 1.03125 1.53125q0.71875 0.515625 1.9374847 0.515625q1.03125 0 1.71875 -0.5625q0.703125 -0.5625 1.03125 -1.59375q0.34375 -1.03125 0.34375 -2.390625q0 -2.0625 -0.765625 -3.234375q-0.765625 -1.1875 -2.359375 -1.1875zm10.717529 -1.609375l0 12.1875l-2.21875 0l0 -12.1875l2.21875 0zm-1.09375 -4.609375q0.53125 0 0.90625 0.3125q0.390625 0.296875 0.390625 1.0q0 0.6875 -0.390625 1.015625q-0.375 0.3125 -0.90625 0.3125q-0.53125 0 -0.90625 -0.3125q-0.375 -0.328125 -0.375 -1.015625q0 -0.703125 0.375 -1.0q0.375 -0.3125 0.90625 -0.3125zm9.799316 17.015625q-1.6875 0 -2.953125 -0.671875q-1.25 -0.671875 -1.953125 -2.0625q-0.6875 -1.390625 -0.6875 -3.515625q0 -2.203125 0.734375 -3.609375q0.75 -1.421875 2.0625 -2.09375q1.3125 -0.671875 3.0 -0.671875q1.0 0 1.859375 0.203125q0.875 0.1875 1.46875 0.484375l-0.671875 1.8125q-0.625 -0.25 -1.34375 -0.4375q-0.703125 -0.1875 -1.34375 -0.1875q-1.171875 0 -1.9375 0.515625q-0.765625 0.515625 -1.15625 1.515625q-0.390625 0.984375 -0.390625 2.453125q0 1.40625 0.375 2.390625q0.390625 0.984375 1.125 1.5q0.75 0.5 1.875 0.5q0.984375 0 1.765625 -0.21875q0.796875 -0.234375 1.453125 -0.5625l0 1.953125q-0.640625 0.359375 -1.421875 0.53125q-0.765625 0.171875 -1.859375 0.171875zm10.395325 -1.796875q0.46875 0 0.953125 -0.078125q0.5 -0.09375 0.84375 -0.21875l0 1.703125q-0.375 0.15625 -1.0 0.265625q-0.625 0.125 -1.265625 0.125q-1.0 0 -1.8125 -0.34375q-0.8125 -0.34375 -1.296875 -1.171875q-0.46875 -0.828125 -0.46875 -2.296875l0 -6.875l-1.703125 0l0 -1.03125l1.78125 -0.828125l0.78125 -2.625l1.375 0l0 2.765625l3.53125 0l0 1.71875l-3.53125 0l0 6.84375q0 1.03125 0.484375 1.546875q0.5 0.5 1.328125 0.5zm6.486969 -10.609375l0 12.1875l-2.21875 0l0 -12.1875l2.21875 0zm-1.09375 -4.609375q0.53125 0 0.90625 0.3125q0.390625 0.296875 0.390625 1.0q0 0.6875 -0.390625 1.015625q-0.375 0.3125 -0.90625 0.3125q-0.53125 0 -0.90625 -0.3125q-0.375 -0.328125 -0.375 -1.015625q0 -0.703125 0.375 -1.0q0.375 -0.3125 0.90625 -0.3125zm15.549316 10.671875q0 1.515625 -0.390625 2.703125q-0.390625 1.171875 -1.140625 1.984375q-0.75 0.8125 -1.796875 1.234375q-1.046875 0.421875 -2.375 0.421875q-1.25 0 -2.28125 -0.421875q-1.03125 -0.421875 -1.78125 -1.234375q-0.75 -0.8125 -1.171875 -1.984375q-0.40625 -1.1875 -0.40625 -2.703125q0 -2.0 0.6875 -3.40625q0.6875 -1.40625 1.96875 -2.140625q1.28125 -0.734375 3.046875 -0.734375q1.671875 0 2.9375 0.734375q1.28125 0.734375 1.984375 2.140625q0.71875 1.40625 0.71875 3.40625zm-9.0625 0q0 1.40625 0.359375 2.421875q0.359375 1.015625 1.109375 1.5625q0.75 0.53125 1.921875 0.53125q1.171875 0 1.921875 -0.53125q0.75 -0.546875 1.09375 -1.5625q0.359375 -1.015625 0.359375 -2.421875q0 -1.390625 -0.359375 -2.375q-0.34375 -1.0 -1.09375 -1.53125q-0.75 -0.53125 -1.9375 -0.53125q-1.75 0 -2.5625 1.171875q-0.8125 1.15625 -0.8125 3.265625zm18.197449 -6.28125q2.109375 0 3.234375 1.0625q1.140625 1.0625 1.140625 3.40625l0 7.9375l-2.1875 0l0 -7.640625q0 -1.46875 -0.65625 -2.203125q-0.640625 -0.734375 -1.96875 -0.734375q-1.890625 0 -2.65625 1.125q-0.75 1.109375 -0.75 3.234375l0 6.21875l-2.21875 0l0 -12.1875l1.765625 0l0.3125 1.71875l0.125 0q0.390625 -0.65625 0.984375 -1.078125q0.59375 -0.4375 1.328125 -0.640625q0.734375 -0.21875 1.546875 -0.21875zm16.133484 9.0q0 1.1875 -0.59375 2.0q-0.578125 0.8125 -1.6875 1.21875q-1.09375 0.40625 -2.640625 0.40625q-1.28125 0 -2.21875 -0.203125q-0.921875 -0.1875 -1.671875 -0.546875l0 -1.96875q0.796875 0.390625 1.859375 0.6875q1.0625 0.296875 2.078125 0.296875q1.4375 0 2.0625 -0.453125q0.640625 -0.453125 0.640625 -1.234375q0 -0.453125 -0.265625 -0.796875q-0.25 -0.34375 -0.890625 -0.6875q-0.625 -0.359375 -1.8125 -0.8125q-1.15625 -0.453125 -1.984375 -0.90625q-0.828125 -0.453125 -1.265625 -1.09375q-0.421875 -0.640625 -0.421875 -1.65625q0 -1.578125 1.265625 -2.40625q1.265625 -0.84375 3.34375 -0.84375q1.109375 0 2.09375 0.21875q0.984375 0.21875 1.875 0.609375l-0.71875 1.71875q-0.796875 -0.34375 -1.640625 -0.5625q-0.84375 -0.234375 -1.71875 -0.234375q-1.140625 0 -1.75 0.375q-0.59375 0.359375 -0.59375 1.0q0 0.5 0.28125 0.828125q0.28125 0.328125 0.9375 0.65625q0.671875 0.3125 1.8125 0.734375q1.109375 0.421875 1.921875 0.875q0.8125 0.453125 1.25 1.109375q0.453125 0.65625 0.453125 1.671875z" fill-rule="nonzero"/><path fill="#000000" fill-opacity="0.0" d="m338.6429 5.5038905l232.37796 0l0 49.35433l-232.37796 0z" fill-rule="evenodd"/><path fill="#000000" d="m387.84854 20.092014l-5.71875 16.171875l-2.359375 0l-5.734375 -16.171875l2.34375 0l3.59375 10.390625q0.203125 0.546875 0.375 1.15625q0.1875 0.59375 0.328125 1.203125q0.15625 0.59375 0.265625 1.09375q0.09375 -0.5 0.234375 -1.09375q0.15625 -0.609375 0.34375 -1.21875q0.1875 -0.609375 0.375 -1.171875l3.59375 -10.359375l2.359375 0zm4.1140747 3.984375l0 12.1875l-2.21875 0l0 -12.1875l2.21875 0zm-1.09375 -4.609375q0.53125 0 0.90625 0.3125q0.390625 0.296875 0.390625 1.0q0 0.6875 -0.390625 1.015625q-0.375 0.3125 -0.90625 0.3125q-0.53125 0 -0.90625 -0.3125q-0.375 -0.328125 -0.375 -1.015625q0 -0.703125 0.375 -1.0q0.375 -0.3125 0.90625 -0.3125zm12.939941 13.390625q0 1.1875 -0.59375 2.0q-0.578125 0.8125 -1.6875 1.21875q-1.09375 0.40625 -2.640625 0.40625q-1.28125 0 -2.21875 -0.203125q-0.921875 -0.1875 -1.671875 -0.546875l0 -1.96875q0.796875 0.390625 1.859375 0.6875q1.0625 0.296875 2.078125 0.296875q1.4375 0 2.0625 -0.453125q0.640625 -0.453125 0.640625 -1.234375q0 -0.453125 -0.265625 -0.796875q-0.25 -0.34375 -0.890625 -0.6875q-0.625 -0.359375 -1.8125 -0.8125q-1.15625 -0.453125 -1.984375 -0.90625q-0.828125 -0.453125 -1.265625 -1.09375q-0.421875 -0.640625 -0.421875 -1.65625q0 -1.578125 1.265625 -2.40625q1.265625 -0.84375 3.34375 -0.84375q1.109375 0 2.09375 0.21875q0.984375 0.21875 1.875 0.609375l-0.71875 1.71875q-0.796875 -0.34375 -1.640625 -0.5625q-0.84375 -0.234375 -1.71875 -0.234375q-1.140625 0 -1.75 0.375q-0.59375 0.359375 -0.59375 1.0q0 0.5 0.28125 0.828125q0.28125 0.328125 0.9375 0.65625q0.671875 0.3125 1.8125 0.734375q1.109375 0.421875 1.921875 0.875q0.8125 0.453125 1.25 1.109375q0.453125 0.65625 0.453125 1.671875zm13.231323 -8.78125l0 12.1875l-1.78125 0l-0.3125 -1.671875l-0.125 0q-0.375 0.625 -0.96875 1.046875q-0.59375 0.421875 -1.34375 0.625q-0.734375 0.21875 -1.5625 0.21875q-1.40625 0 -2.390625 -0.453125q-0.984375 -0.46875 -1.484375 -1.453125q-0.5 -0.984375 -0.5 -2.53125l0 -7.96875l2.234375 0l0 7.65625q0 1.484375 0.625 2.21875q0.640625 0.71875 1.953125 0.71875q1.265625 0 2.015625 -0.5q0.75 -0.5 1.078125 -1.46875q0.328125 -0.96875 0.328125 -2.375l0 -6.25l2.234375 0zm8.461578 -0.21875q2.25 0 3.359375 1.0q1.125 1.0 1.125 3.171875l0 8.234375l-1.59375 0l-0.421875 -1.765625l-0.09375 0q-0.5 0.65625 -1.0625 1.109375q-0.546875 0.4375 -1.28125 0.65625q-0.71875 0.21875 -1.765625 0.21875q-1.09375 0 -1.96875 -0.390625q-0.859375 -0.40625 -1.359375 -1.203125q-0.484375 -0.796875 -0.484375 -2.046875q0 -1.859375 1.421875 -2.8125q1.4375 -0.96875 4.328125 -1.0625l2.109375 -0.078125l0 -0.6875q0 -1.421875 -0.640625 -2.015625q-0.640625 -0.59375 -1.78125 -0.59375q-0.9375 0 -1.796875 0.28125q-0.859375 0.265625 -1.65625 0.640625l-0.703125 -1.609375q0.859375 -0.4375 1.953125 -0.734375q1.109375 -0.3125 2.3125 -0.3125zm2.28125 6.484375l-1.703125 0.078125q-2.109375 0.078125 -2.96875 0.703125q-0.859375 0.625 -0.859375 1.75q0 0.96875 0.578125 1.421875q0.59375 0.453125 1.5625 0.453125q1.484375 0 2.4375 -0.828125q0.953125 -0.84375 0.953125 -2.484375l0 -1.09375zm8.147095 5.921875l-2.234375 0l0 -17.21875l2.234375 0l0 17.21875zm6.0180664 0l-2.234375 0l0 -17.21875l2.234375 0l0 17.21875zm1.9086914 -12.1875l2.40625 0l2.59375 7.015625q0.1875 0.546875 0.359375 1.0625q0.171875 0.515625 0.296875 1.0q0.140625 0.46875 0.21875 0.9375l0.078125 0q0.125 -0.5625 0.359375 -1.359375q0.25 -0.8125 0.546875 -1.640625l2.46875 -7.015625l2.390625 0l-5.265625 13.90625q-0.421875 1.171875 -1.046875 2.0q-0.609375 0.84375 -1.453125 1.28125q-0.84375 0.453125 -1.984375 0.453125q-0.53125 0 -0.9375 -0.0625q-0.40625 -0.0625 -0.6875 -0.140625l0 -1.765625q0.234375 0.0625 0.578125 0.09375q0.359375 0.046875 0.734375 0.046875q0.703125 0 1.203125 -0.265625q0.5 -0.265625 0.859375 -0.765625q0.359375 -0.5 0.609375 -1.171875l0.546875 -1.4375l-4.875 -12.171875zm29.013367 7.84375q0 1.4375 -0.71875 2.46875q-0.703125 1.015625 -2.0 1.5625q-1.296875 0.53125 -3.078125 0.53125q-0.890625 0 -1.703125 -0.09375q-0.8125 -0.09375 -1.515625 -0.265625q-0.703125 -0.1875 -1.265625 -0.453125l0 -2.140625q0.921875 0.375 2.125 0.703125q1.203125 0.328125 2.484375 0.328125q1.125 0 1.875 -0.296875q0.765625 -0.3125 1.15625 -0.859375q0.390625 -0.5625 0.390625 -1.328125q0 -0.78125 -0.390625 -1.296875q-0.375 -0.53125 -1.1875 -0.96875q-0.8125 -0.453125 -2.125 -0.953125q-0.921875 -0.328125 -1.671875 -0.75q-0.75 -0.421875 -1.296875 -0.96875q-0.546875 -0.5625 -0.84375 -1.3125q-0.296875 -0.75 -0.296875 -1.71875q0 -1.34375 0.65625 -2.296875q0.65625 -0.953125 1.828125 -1.453125q1.1875 -0.5 2.75 -0.5q1.28125 0 2.390625 0.265625q1.125 0.25 2.125 0.6875l-0.71875 1.875q-0.9375 -0.390625 -1.890625 -0.625q-0.953125 -0.25 -1.96875 -0.25q-0.9375 0 -1.59375 0.28125q-0.640625 0.28125 -0.984375 0.796875q-0.328125 0.5 -0.328125 1.1875q0 0.796875 0.34375 1.3125q0.359375 0.515625 1.125 0.9375q0.765625 0.421875 1.984375 0.90625q1.390625 0.53125 2.359375 1.125q0.96875 0.59375 1.46875 1.4375q0.515625 0.84375 0.515625 2.125zm5.137512 -7.84375l0 12.1875l-2.21875 0l0 -12.1875l2.21875 0zm-1.09375 -4.609375q0.53125 0 0.90625 0.3125q0.390625 0.296875 0.390625 1.0q0 0.6875 -0.390625 1.015625q-0.375 0.3125 -0.90625 0.3125q-0.53125 0 -0.90625 -0.3125q-0.375 -0.328125 -0.375 -1.015625q0 -0.703125 0.375 -1.0q0.375 -0.3125 0.90625 -0.3125zm18.408691 4.390625q2.015625 0 3.046875 1.0625q1.046875 1.046875 1.046875 3.375l0 7.96875l-2.203125 0l0 -7.703125q0 -1.4375 -0.59375 -2.15625q-0.59375 -0.71875 -1.765625 -0.71875q-1.65625 0 -2.40625 1.0q-0.734375 1.0 -0.734375 2.9375l0 6.640625l-2.203125 0l0 -7.703125q0 -0.953125 -0.265625 -1.59375q-0.265625 -0.640625 -0.796875 -0.953125q-0.515625 -0.328125 -1.3125 -0.328125q-1.140625 0 -1.828125 0.5q-0.671875 0.484375 -0.984375 1.453125q-0.296875 0.953125 -0.296875 2.359375l0 6.265625l-2.21875 0l0 -12.1875l1.765625 0l0.3125 1.671875l0.125 0q0.359375 -0.625 0.921875 -1.046875q0.5625 -0.421875 1.25 -0.625q0.6875 -0.21875 1.4375 -0.21875q1.375 0 2.3125 0.5q0.953125 0.484375 1.390625 1.5l0.140625 0q0.59375 -1.015625 1.625 -1.5q1.03125 -0.5 2.234375 -0.5zm9.998688 0.21875l0 12.1875l-2.21875 0l0 -12.1875l2.21875 0zm-1.09375 -4.609375q0.53125 0 0.90625 0.3125q0.390625 0.296875 0.390625 1.0q0 0.6875 -0.390625 1.015625q-0.375 0.3125 -0.90625 0.3125q-0.53125 0 -0.90625 -0.3125q-0.375 -0.328125 -0.375 -1.015625q0 -0.703125 0.375 -1.0q0.375 -0.3125 0.90625 -0.3125zm7.1274414 16.796875l-2.234375 0l0 -17.21875l2.234375 0l0 17.21875zm8.455597 -12.40625q2.25 0 3.359375 1.0q1.125 1.0 1.125 3.171875l0 8.234375l-1.59375 0l-0.421875 -1.765625l-0.09375 0q-0.5 0.65625 -1.0625 1.109375q-0.546875 0.4375 -1.28125 0.65625q-0.71875 0.21875 -1.765625 0.21875q-1.09375 0 -1.96875 -0.390625q-0.859375 -0.40625 -1.359375 -1.203125q-0.484375 -0.796875 -0.484375 -2.046875q0 -1.859375 1.421875 -2.8125q1.4375 -0.96875 4.328125 -1.0625l2.109375 -0.078125l0 -0.6875q0 -1.421875 -0.640625 -2.015625q-0.640625 -0.59375 -1.78125 -0.59375q-0.9375 0 -1.796875 0.28125q-0.859375 0.265625 -1.65625 0.640625l-0.703125 -1.609375q0.859375 -0.4375 1.953125 -0.734375q1.109375 -0.3125 2.3125 -0.3125zm2.28125 6.484375l-1.703125 0.078125q-2.109375 0.078125 -2.96875 0.703125q-0.859375 0.625 -0.859375 1.75q0 0.96875 0.578125 1.421875q0.59375 0.453125 1.5625 0.453125q1.484375 0 2.4375 -0.828125q0.953125 -0.84375 0.953125 -2.484375l0 -1.09375zm11.772034 -6.484375q0.34375 0 0.71875 0.046875q0.390625 0.03125 0.671875 0.078125l-0.234375 2.078125q-0.265625 -0.078125 -0.625 -0.109375q-0.34375 -0.046875 -0.640625 -0.046875q-0.703125 0 -1.34375 0.265625q-0.640625 0.265625 -1.140625 0.765625q-0.484375 0.5 -0.765625 1.234375q-0.265625 0.71875 -0.265625 1.640625l0 6.453125l-2.234375 0l0 -12.1875l1.796875 0l0.265625 2.203125l0.09375 0q0.375 -0.671875 0.90625 -1.21875q0.546875 -0.5625 1.25 -0.875q0.703125 -0.328125 1.546875 -0.328125z" fill-rule="nonzero"/><path fill="#000000" fill-opacity="0.0" d="m57.411934 5.5038905l164.09448 0l0 49.35433l-164.09448 0z" fill-rule="evenodd"/><path fill="#000000" d="m77.818184 31.92014q0 1.4375 -0.71875 2.46875q-0.703125 1.015625 -2.0 1.5625q-1.296875 0.53125 -3.078125 0.53125q-0.890625 0 -1.703125 -0.09375q-0.8125 -0.09375 -1.515625 -0.265625q-0.703125 -0.1875 -1.265625 -0.453125l0 -2.140625q0.921875 0.375 2.125 0.703125q1.203125 0.328125 2.484375 0.328125q1.125 0 1.875 -0.296875q0.765625 -0.3125 1.15625 -0.859375q0.390625 -0.5625 0.390625 -1.328125q0 -0.78125 -0.390625 -1.296875q-0.375 -0.53125 -1.1875 -0.96875q-0.8125 -0.453125 -2.125 -0.953125q-0.921875 -0.328125 -1.671875 -0.75q-0.75 -0.421875 -1.296875 -0.96875q-0.546875 -0.5625 -0.84375 -1.3125q-0.296875 -0.75 -0.296875 -1.71875q0 -1.34375 0.65625 -2.296875q0.65625 -0.953125 1.828125 -1.453125q1.1875 -0.5 2.75 -0.5q1.28125 0 2.390625 0.265625q1.125 0.25 2.125 0.6875l-0.71875 1.875q-0.9375 -0.390625 -1.890625 -0.625q-0.953125 -0.25 -1.96875 -0.25q-0.9375 0 -1.59375 0.28125q-0.640625 0.28125 -0.984375 0.796875q-0.328125 0.5 -0.328125 1.1875q0 0.796875 0.34375 1.3125q0.359375 0.515625 1.125 0.9375q0.765625 0.421875 1.984375 0.90625q1.390625 0.53125 2.359375 1.125q0.96875 0.59375 1.46875 1.4375q0.515625 0.84375 0.515625 2.125zm1.0437622 -7.84375l2.40625 0l2.59375 7.015625q0.1875 0.546875 0.359375 1.0625q0.171875 0.515625 0.296875 1.0q0.140625 0.46875 0.21875 0.9375l0.078125 0q0.125 -0.5625 0.359375 -1.359375q0.25 -0.8125 0.546875 -1.640625l2.46875 -7.015625l2.390625 0l-5.265625 13.90625q-0.421875 1.171875 -1.046875 2.0q-0.609375 0.84375 -1.453125 1.28125q-0.84375 0.453125 -1.984375 0.453125q-0.53125 0 -0.9375 -0.0625q-0.40625 -0.0625 -0.6875 -0.140625l0 -1.765625q0.234375 0.0625 0.578125 0.09375q0.359375 0.046875 0.734375 0.046875q0.703125 0 1.203125 -0.265625q0.5 -0.265625 0.859375 -0.765625q0.359375 -0.5 0.609375 -1.171875l0.546875 -1.4375l-4.875 -12.171875zm19.674942 -0.21875q2.109375 0 3.234375 1.0625q1.140625 1.0625 1.140625 3.40625l0 7.9375l-2.1875 0l0 -7.640625q0 -1.46875 -0.65625 -2.203125q-0.640625 -0.734375 -1.96875 -0.734375q-1.890625 0 -2.65625 1.125q-0.75 1.109375 -0.75 3.234375l0 6.21875l-2.21875 0l0 -12.1875l1.765625 0l0.3125 1.71875l0.125 0q0.390625 -0.65625 0.984375 -1.078125q0.59375 -0.4375 1.328125 -0.640625q0.734375 -0.21875 1.546875 -0.21875zm18.742844 6.28125q0 1.515625 -0.390625 2.703125q-0.390625 1.171875 -1.140625 1.984375q-0.75 0.8125 -1.796875 1.234375q-1.046875 0.421875 -2.375 0.421875q-1.25 0 -2.28125 -0.421875q-1.03125 -0.421875 -1.78125 -1.234375q-0.75 -0.8125 -1.171875 -1.984375q-0.40625 -1.1875 -0.40625 -2.703125q0 -2.0 0.6875 -3.40625q0.6875 -1.40625 1.96875 -2.140625q1.28125 -0.734375 3.046875 -0.734375q1.671875 0 2.9375 0.734375q1.28125 0.734375 1.984375 2.140625q0.71875 1.40625 0.71875 3.40625zm-9.0625 0q0 1.40625 0.359375 2.421875q0.359375 1.015625 1.109375 1.5625q0.75 0.53125 1.921875 0.53125q1.171875 0 1.921875 -0.53125q0.75 -0.546875 1.09375 -1.5625q0.359375 -1.015625 0.359375 -2.421875q0 -1.390625 -0.359375 -2.375q-0.34375 -1.0 -1.09375 -1.53125q-0.75 -0.53125 -1.9375 -0.53125q-1.75 0 -2.5625 1.171875q-0.8125 1.15625 -0.8125 3.265625zm18.197464 -6.28125q2.1093674 0 3.2343674 1.0625q1.140625 1.0625 1.140625 3.40625l0 7.9375l-2.1875 0l0 -7.640625q0 -1.46875 -0.6562424 -2.203125q-0.640625 -0.734375 -1.96875 -0.734375q-1.890625 0 -2.65625 1.125q-0.75 1.109375 -0.75 3.234375l0 6.21875l-2.21875 0l0 -12.1875l1.765625 0l0.3125 1.71875l0.125 0q0.390625 -0.65625 0.984375 -1.078125q0.59375 -0.4375 1.328125 -0.640625q0.734375 -0.21875 1.546875 -0.21875zm6.211586 0.21875l2.40625 0l2.59375 7.015625q0.1875 0.546875 0.359375 1.0625q0.171875 0.515625 0.296875 1.0q0.140625 0.46875 0.21875 0.9375l0.078125 0q0.125 -0.5625 0.359375 -1.359375q0.25 -0.8125 0.546875 -1.640625l2.46875 -7.015625l2.390625 0l-5.265625 13.90625q-0.421875 1.171875 -1.046875 2.0q-0.609375 0.84375 -1.453125 1.28125q-0.84375 0.453125 -1.984375 0.453125q-0.53125 0 -0.9375 -0.0625q-0.40625 -0.0625 -0.6875 -0.140625l0 -1.765625q0.234375 0.0625 0.578125 0.09375q0.359375 0.046875 0.734375 0.046875q0.703125 0 1.203125 -0.265625q0.5 -0.265625 0.859375 -0.765625q0.359375 -0.5 0.609375 -1.171875l0.546875 -1.4375l-4.875 -12.171875zm27.128067 -0.21875q2.015625 0 3.046875 1.0625q1.046875 1.046875 1.046875 3.375l0 7.96875l-2.203125 0l0 -7.703125q0 -1.4375 -0.59375 -2.15625q-0.59375 -0.71875 -1.765625 -0.71875q-1.65625 0 -2.40625 1.0q-0.734375 1.0 -0.734375 2.9375l0 6.640625l-2.203125 0l0 -7.703125q0 -0.953125 -0.265625 -1.59375q-0.265625 -0.640625 -0.796875 -0.953125q-0.515625 -0.328125 -1.3125 -0.328125q-1.140625 0 -1.828125 0.5q-0.671875 0.484375 -0.984375 1.453125q-0.296875 0.953125 -0.296875 2.359375l0 6.265625l-2.21875 0l0 -12.1875l1.765625 0l0.3125 1.671875l0.125 0q0.359375 -0.625 0.921875 -1.046875q0.5625 -0.421875 1.25 -0.625q0.6875 -0.21875 1.4375 -0.21875q1.375 0 2.3125 0.5q0.953125 0.484375 1.390625 1.5l0.140625 0q0.59375 -1.015625 1.625 -1.5q1.03125 -0.5 2.234375 -0.5zm15.8267975 9.0q0 1.1875 -0.59375 2.0q-0.578125 0.8125 -1.6875 1.21875q-1.09375 0.40625 -2.640625 0.40625q-1.28125 0 -2.21875 -0.203125q-0.921875 -0.1875 -1.671875 -0.546875l0 -1.96875q0.796875 0.390625 1.859375 0.6875q1.0625 0.296875 2.078125 0.296875q1.4375 0 2.0625 -0.453125q0.640625 -0.453125 0.640625 -1.234375q0 -0.453125 -0.265625 -0.796875q-0.25 -0.34375 -0.890625 -0.6875q-0.625 -0.359375 -1.8125 -0.8125q-1.15625 -0.453125 -1.984375 -0.90625q-0.828125 -0.453125 -1.265625 -1.09375q-0.421875 -0.640625 -0.421875 -1.65625q0 -1.578125 1.265625 -2.40625q1.265625 -0.84375 3.34375 -0.84375q1.109375 0 2.09375 0.21875q0.984375 0.21875 1.875 0.609375l-0.71875 1.71875q-0.796875 -0.34375 -1.640625 -0.5625q-0.84375 -0.234375 -1.71875 -0.234375q-1.140625 0 -1.75 0.375q-0.59375 0.359375 -0.59375 1.0q0 0.5 0.28125 0.828125q0.28125 0.328125 0.9375 0.65625q0.671875 0.3125 1.8125 0.734375q1.109375 0.421875 1.921875 0.875q0.8125 0.453125 1.25 1.109375q0.453125 0.65625 0.453125 1.671875z" fill-rule="nonzero"/><path fill="#000000" fill-opacity="0.0" d="m829.3906 5.5038905l172.78735 0l0 49.354332l-172.78735 0z" fill-rule="evenodd"/><path fill="#000000" d="m840.5625 36.26389l0 -16.171875l2.265625 0l0 16.171875l-2.265625 0zm12.407715 -12.40625q2.109375 0 3.234375 1.0625q1.140625 1.0625 1.140625 3.40625l0 7.9375l-2.1875 0l0 -7.640625q0 -1.46875 -0.65625 -2.203125q-0.640625 -0.734375 -1.96875 -0.734375q-1.890625 0 -2.65625 1.125q-0.75 1.109375 -0.75 3.234375l0 6.21875l-2.21875 0l0 -12.1875l1.765625 0l0.3125 1.71875l0.125 0q0.390625 -0.65625 0.984375 -1.078125q0.59375 -0.4375 1.328125 -0.640625q0.734375 -0.21875 1.546875 -0.21875zm12.992859 12.625q-1.6875 0 -2.953125 -0.671875q-1.25 -0.671875 -1.953125 -2.0625q-0.6875 -1.390625 -0.6875 -3.515625q0 -2.203125 0.734375 -3.609375q0.75 -1.421875 2.0625 -2.09375q1.3125 -0.671875 3.0 -0.671875q1.0 0 1.859375 0.203125q0.875 0.1875 1.46875 0.484375l-0.671875 1.8125q-0.625 -0.25 -1.34375 -0.4375q-0.703125 -0.1875 -1.34375 -0.1875q-1.171875 0 -1.9375 0.515625q-0.765625 0.515625 -1.15625 1.515625q-0.390625 0.984375 -0.390625 2.453125q0 1.40625 0.375 2.390625q0.390625 0.984375 1.125 1.5q0.75 0.5 1.875 0.5q0.984375 0 1.765625 -0.21875q0.796875 -0.234375 1.453125 -0.5625l0 1.953125q-0.640625 0.359375 -1.421875 0.53125q-0.765625 0.171875 -1.859375 0.171875zm16.801575 -6.34375q0 1.515625 -0.390625 2.703125q-0.390625 1.171875 -1.140625 1.984375q-0.75 0.8125 -1.796875 1.234375q-1.046875 0.421875 -2.375 0.421875q-1.25 0 -2.28125 -0.421875q-1.03125 -0.421875 -1.78125 -1.234375q-0.75 -0.8125 -1.171875 -1.984375q-0.40625 -1.1875 -0.40625 -2.703125q0 -2.0 0.6875 -3.40625q0.6875 -1.40625 1.96875 -2.140625q1.28125 -0.734375 3.046875 -0.734375q1.671875 0 2.9375 0.734375q1.28125 0.734375 1.984375 2.140625q0.71875 1.40625 0.71875 3.40625zm-9.0625 0q0 1.40625 0.359375 2.421875q0.359375 1.015625 1.109375 1.5625q0.75 0.53125 1.921875 0.53125q1.171875 0 1.921875 -0.53125q0.75 -0.546875 1.09375 -1.5625q0.359375 -1.015625 0.359375 -2.421875q0 -1.390625 -0.359375 -2.375q-0.34375 -1.0 -1.09375 -1.53125q-0.75 -0.53125 -1.9375 -0.53125q-1.75 0 -2.5625 1.171875q-0.8125 1.15625 -0.8125 3.265625zm17.994324 -6.28125q0.34375 0 0.71875 0.046875q0.390625 0.03125 0.671875 0.078125l-0.234375 2.078125q-0.265625 -0.078125 -0.625 -0.109375q-0.34375 -0.046875 -0.640625 -0.046875q-0.703125 0 -1.34375 0.265625q-0.640625 0.265625 -1.140625 0.765625q-0.484375 0.5 -0.765625 1.234375q-0.265625 0.71875 -0.265625 1.640625l0 6.453125l-2.234375 0l0 -12.1875l1.796875 0l0.265625 2.203125l0.09375 0q0.375 -0.671875 0.90625 -1.21875q0.546875 -0.5625 1.25 -0.875q0.703125 -0.328125 1.546875 -0.328125zm9.513855 0q0.34375 0 0.71875 0.046875q0.390625 0.03125 0.671875 0.078125l-0.234375 2.078125q-0.265625 -0.078125 -0.625 -0.109375q-0.34375 -0.046875 -0.640625 -0.046875q-0.703125 0 -1.34375 0.265625q-0.640625 0.265625 -1.140625 0.765625q-0.484375 0.5 -0.765625 1.234375q-0.265625 0.71875 -0.265625 1.640625l0 6.453125l-2.234375 0l0 -12.1875l1.796875 0l0.265625 2.203125l0.09375 0q0.375 -0.671875 0.90625 -1.21875q0.546875 -0.5625 1.25 -0.875q0.703125 -0.328125 1.546875 -0.328125zm8.43573 0q1.59375 0 2.734375 0.6875q1.140625 0.671875 1.75 1.90625q0.609375 1.234375 0.609375 2.921875l0 1.265625l-8.28125 0q0.03125 1.953125 1.0 3.0q0.984375 1.046875 2.734375 1.046875q1.171875 0 2.078125 -0.21875q0.90625 -0.234375 1.875 -0.65625l0 1.859375q-0.921875 0.421875 -1.84375 0.609375q-0.921875 0.203125 -2.203125 0.203125q-1.765625 0 -3.109375 -0.703125q-1.328125 -0.703125 -2.078125 -2.09375q-0.734375 -1.390625 -0.734375 -3.421875q0 -2.015625 0.671875 -3.453125q0.6875 -1.4375 1.90625 -2.1875q1.234375 -0.765625 2.890625 -0.765625zm-0.015625 1.71875q-1.34375 0 -2.171875 0.890625q-0.8125 0.875 -0.953125 2.5l6.0 0q-0.015625 -1.0 -0.328125 -1.765625q-0.3125 -0.765625 -0.9375 -1.1875q-0.625 -0.4375 -1.609375 -0.4375zm13.028564 10.90625q-1.6875 0 -2.953125 -0.671875q-1.25 -0.671875 -1.953125 -2.0625q-0.6875 -1.390625 -0.6875 -3.515625q0 -2.203125 0.734375 -3.609375q0.75 -1.421875 2.0625 -2.09375q1.3125 -0.671875 3.0 -0.671875q1.0 0 1.859375 0.203125q0.875 0.1875 1.46875 0.484375l-0.671875 1.8125q-0.625 -0.25 -1.34375 -0.4375q-0.703125 -0.1875 -1.34375 -0.1875q-1.171875 0 -1.9375 0.515625q-0.765625 0.515625 -1.15625 1.515625q-0.390625 0.984375 -0.390625 2.453125q0 1.40625 0.375 2.390625q0.390625 0.984375 1.125 1.5q0.75 0.5 1.875 0.5q0.984375 0 1.765625 -0.21875q0.796875 -0.234375 1.453125 -0.5625l0 1.953125q-0.640625 0.359375 -1.421875 0.53125q-0.765625 0.171875 -1.859375 0.171875zm10.395325 -1.796875q0.46875 0 0.953125 -0.078125q0.5 -0.09375 0.84375 -0.21875l0 1.703125q-0.375 0.15625 -1.0 0.265625q-0.625 0.125 -1.265625 0.125q-1.0 0 -1.8125 -0.34375q-0.8125 -0.34375 -1.296875 -1.171875q-0.46875 -0.828125 -0.46875 -2.296875l0 -6.875l-1.703125 0l0 -1.03125l1.78125 -0.828125l0.78125 -2.625l1.375 0l0 2.765625l3.53125 0l0 1.71875l-3.53125 0l0 6.84375q0 1.03125 0.484375 1.546875q0.5 0.5 1.328125 0.5z" fill-rule="nonzero"/><path fill="#0173b2" d="m187.0108 20.968458l26.330704 0l0 18.425196l-26.330704 0z" fill-rule="evenodd"/><path fill="#029e73" d="m31.081366 20.968458l26.33071 0l0 18.425196l-26.33071 0z" fill-rule="evenodd"/><path fill="#d55e00" d="m803.05927 20.968458l26.330688 0l0 18.425196l-26.330688 0z" fill-rule="evenodd"/><path fill="#cc78bc" d="m543.75684 20.968458l26.330688 0l0 18.425196l-26.330688 0z" fill-rule="evenodd"/><path fill="#949494" d="m661.828 20.968458l26.330688 0l0 18.425196l-26.330688 0z" fill-rule="evenodd"/><path fill="#000000" fill-opacity="0.0" d="m570.0866 5.5038905l105.57483 0l0 49.354332l-105.57483 0z" fill-rule="evenodd"/><path fill="#000000" d="m588.16473 21.810764q-1.25 0 -2.25 0.4375q-0.984375 0.4375 -1.671875 1.28125q-0.6875 0.828125 -1.0625 2.0q-0.359375 1.171875 -0.359375 2.640625q0 1.96875 0.578125 3.390625q0.59375 1.421875 1.765625 2.203125q1.171875 0.78125 2.953125 0.78125q1.0625 0 2.03125 -0.1875q0.96875 -0.203125 1.921875 -0.515625l0 1.953125q-0.921875 0.34375 -1.921875 0.515625q-0.984375 0.171875 -2.3125 0.171875q-2.484375 0 -4.125 -1.03125q-1.640625 -1.03125 -2.453125 -2.890625q-0.796875 -1.859375 -0.796875 -4.390625q0 -1.84375 0.5 -3.359375q0.515625 -1.515625 1.5 -2.625q0.984375 -1.125 2.40625 -1.71875q1.4375 -0.609375 3.3125 -0.609375q1.21875 0 2.375 0.265625q1.15625 0.25 2.125 0.71875l-0.84375 1.890625q-0.796875 -0.359375 -1.734375 -0.640625q-0.921875 -0.28125 -1.9375 -0.28125zm9.361938 14.453125l-2.234375 0l0 -17.21875l2.234375 0l0 17.21875zm14.143066 -12.1875l0 12.1875l-1.78125 0l-0.3125 -1.671875l-0.125 0q-0.375 0.625 -0.96875 1.046875q-0.59375 0.421875 -1.34375 0.625q-0.734375 0.21875 -1.5625 0.21875q-1.40625 0 -2.390625 -0.453125q-0.984375 -0.46875 -1.484375 -1.453125q-0.5 -0.984375 -0.5 -2.53125l0 -7.96875l2.234375 0l0 7.65625q0 1.484375 0.625 2.21875q0.640625 0.71875 1.953125 0.71875q1.265625 0 2.015625 -0.5q0.75 -0.5 1.078125 -1.46875q0.328125 -0.96875 0.328125 -2.375l0 -6.25l2.234375 0zm8.039673 10.609375q0.46875 0 0.953125 -0.078125q0.5 -0.09375 0.84375 -0.21875l0 1.703125q-0.375 0.15625 -1.0 0.265625q-0.625 0.125 -1.265625 0.125q-1.0 0 -1.8125 -0.34375q-0.8125 -0.34375 -1.296875 -1.171875q-0.46875 -0.828125 -0.46875 -2.296875l0 -6.875l-1.703125 0l0 -1.03125l1.78125 -0.828125l0.78125 -2.625l1.375 0l0 2.765625l3.53125 0l0 1.71875l-3.53125 0l0 6.84375q0 1.03125 0.484375 1.546875q0.5 0.5 1.328125 0.5zm8.5182495 0q0.46875 0 0.953125 -0.078125q0.5 -0.09375 0.84375 -0.21875l0 1.703125q-0.375 0.15625 -1.0 0.265625q-0.625 0.125 -1.265625 0.125q-1.0 0 -1.8125 -0.34375q-0.8125 -0.34375 -1.296875 -1.171875q-0.46875 -0.828125 -0.46875 -2.296875l0 -6.875l-1.703125 0l0 -1.03125l1.78125 -0.828125l0.78125 -2.625l1.375 0l0 2.765625l3.53125 0l0 1.71875l-3.53125 0l0 6.84375q0 1.03125 0.484375 1.546875q0.5 0.5 1.328125 0.5zm9.049438 -10.828125q1.59375 0 2.734375 0.6875q1.140625 0.671875 1.75 1.90625q0.609375 1.234375 0.609375 2.921875l0 1.265625l-8.28125 0q0.03125 1.953125 1.0 3.0q0.984375 1.046875 2.734375 1.046875q1.171875 0 2.078125 -0.21875q0.90625 -0.234375 1.875 -0.65625l0 1.859375q-0.921875 0.421875 -1.84375 0.609375q-0.921875 0.203125 -2.203125 0.203125q-1.765625 0 -3.109375 -0.703125q-1.328125 -0.703125 -2.078125 -2.09375q-0.734375 -1.390625 -0.734375 -3.421875q0 -2.015625 0.671875 -3.453125q0.6875 -1.4375 1.90625 -2.1875q1.234375 -0.765625 2.890625 -0.765625zm-0.015625 1.71875q-1.34375 0 -2.171875 0.890625q-0.8125 0.875 -0.953125 2.5l6.0 0q-0.015625 -1.0 -0.328125 -1.765625q-0.3125 -0.765625 -0.9375 -1.1875q-0.625 -0.4375 -1.609375 -0.4375zm13.9817505 -1.71875q0.34375 0 0.71875 0.046875q0.390625 0.03125 0.671875 0.078125l-0.234375 2.078125q-0.265625 -0.078125 -0.625 -0.109375q-0.34375 -0.046875 -0.640625 -0.046875q-0.703125 0 -1.34375 0.265625q-0.640625 0.265625 -1.140625 0.765625q-0.484375 0.5 -0.765625 1.234375q-0.265625 0.71875 -0.265625 1.640625l0 6.453125l-2.234375 0l0 -12.1875l1.796875 0l0.265625 2.203125l0.09375 0q0.375 -0.671875 0.90625 -1.21875q0.546875 -0.5625 1.25 -0.875q0.703125 -0.328125 1.546875 -0.328125z" fill-rule="nonzero"/><path fill="#000000" fill-opacity="0.0" d="m688.1575 5.5038905l107.87402 0l0 49.354332l-107.87402 0z" fill-rule="evenodd"/><path fill="#000000" d="m706.3762 36.26389l-5.046875 -13.90625l-0.09375 0q0.03125 0.453125 0.0625 1.171875q0.046875 0.703125 0.078125 1.546875q0.03125 0.828125 0.03125 1.640625l0 9.546875l-2.078125 0l0 -16.171875l3.265625 0l4.78125 13.171875l0.078125 0l4.921875 -13.171875l3.234375 0l0 16.171875l-2.1875 0l0 -9.6875q0 -0.71875 0.015625 -1.5q0.03125 -0.796875 0.0625 -1.515625q0.046875 -0.71875 0.078125 -1.1875l-0.109375 0l-5.15625 13.890625l-1.9375 0zm15.511353 -12.1875l0 12.1875l-2.21875 0l0 -12.1875l2.21875 0zm-1.09375 -4.609375q0.53125 0 0.90625 0.3125q0.390625 0.296875 0.390625 1.0q0 0.6875 -0.390625 1.015625q-0.375 0.3125 -0.90625 0.3125q-0.53125 0 -0.90625 -0.3125q-0.375 -0.328125 -0.375 -1.015625q0 -0.703125 0.375 -1.0q0.375 -0.3125 0.90625 -0.3125zm12.939941 13.390625q0 1.1875 -0.59375 2.0q-0.578125 0.8125 -1.6875 1.21875q-1.09375 0.40625 -2.640625 0.40625q-1.28125 0 -2.21875 -0.203125q-0.921875 -0.1875 -1.671875 -0.546875l0 -1.96875q0.796875 0.390625 1.859375 0.6875q1.0625 0.296875 2.078125 0.296875q1.4375 0 2.0625 -0.453125q0.640625 -0.453125 0.640625 -1.234375q0 -0.453125 -0.265625 -0.796875q-0.25 -0.34375 -0.890625 -0.6875q-0.625 -0.359375 -1.8125 -0.8125q-1.15625 -0.453125 -1.984375 -0.90625q-0.828125 -0.453125 -1.265625 -1.09375q-0.421875 -0.640625 -0.421875 -1.65625q0 -1.578125 1.265625 -2.40625q1.265625 -0.84375 3.34375 -0.84375q1.109375 0 2.09375 0.21875q0.984375 0.21875 1.875 0.609375l-0.71875 1.71875q-0.796875 -0.34375 -1.640625 -0.5625q-0.84375 -0.234375 -1.71875 -0.234375q-1.140625 0 -1.75 0.375q-0.59375 0.359375 -0.59375 1.0q0 0.5 0.28125 0.828125q0.28125 0.328125 0.9375 0.65625q0.671875 0.3125 1.8125 0.734375q1.109375 0.421875 1.921875 0.875q0.8125 0.453125 1.25 1.109375q0.453125 0.65625 0.453125 1.671875zm10.918823 0q0 1.1875 -0.59375 2.0q-0.578125 0.8125 -1.6875 1.21875q-1.09375 0.40625 -2.640625 0.40625q-1.28125 0 -2.21875 -0.203125q-0.921875 -0.1875 -1.671875 -0.546875l0 -1.96875q0.796875 0.390625 1.859375 0.6875q1.0625 0.296875 2.078125 0.296875q1.4375 0 2.0625 -0.453125q0.640625 -0.453125 0.640625 -1.234375q0 -0.453125 -0.265625 -0.796875q-0.25 -0.34375 -0.890625 -0.6875q-0.625 -0.359375 -1.8125 -0.8125q-1.15625 -0.453125 -1.984375 -0.90625q-0.828125 -0.453125 -1.265625 -1.09375q-0.421875 -0.640625 -0.421875 -1.65625q0 -1.578125 1.265625 -2.40625q1.265625 -0.84375 3.34375 -0.84375q1.109375 0 2.09375 0.21875q0.984375 0.21875 1.875 0.609375l-0.71875 1.71875q-0.796875 -0.34375 -1.640625 -0.5625q-0.84375 -0.234375 -1.71875 -0.234375q-1.140625 0 -1.75 0.375q-0.59375 0.359375 -0.59375 1.0q0 0.5 0.28125 0.828125q0.28125 0.328125 0.9375 0.65625q0.671875 0.3125 1.8125 0.734375q1.109375 0.421875 1.921875 0.875q0.8125 0.453125 1.25 1.109375q0.453125 0.65625 0.453125 1.671875zm5.0906982 -8.78125l0 12.1875l-2.21875 0l0 -12.1875l2.21875 0zm-1.09375 -4.609375q0.53125 0 0.90625 0.3125q0.390625 0.296875 0.390625 1.0q0 0.6875 -0.390625 1.015625q-0.375 0.3125 -0.90625 0.3125q-0.53125 0 -0.90625 -0.3125q-0.375 -0.328125 -0.375 -1.015625q0 -0.703125 0.375 -1.0q0.375 -0.3125 0.90625 -0.3125zm10.955566 4.390625q2.109375 0 3.234375 1.0625q1.140625 1.0625 1.140625 3.40625l0 7.9375l-2.1875 0l0 -7.640625q0 -1.46875 -0.65625 -2.203125q-0.640625 -0.734375 -1.96875 -0.734375q-1.890625 0 -2.65625 1.125q-0.75 1.109375 -0.75 3.234375l0 6.21875l-2.21875 0l0 -12.1875l1.765625 0l0.3125 1.71875l0.125 0q0.390625 -0.65625 0.984375 -1.078125q0.59375 -0.4375 1.328125 -0.640625q0.734375 -0.21875 1.546875 -0.21875zm11.539734 17.84375q-2.453125 0 -3.765625 -0.890625q-1.296875 -0.890625 -1.296875 -2.5q0 -1.140625 0.71875 -1.9375q0.71875 -0.78125 2.015625 -1.0625q-0.5 -0.21875 -0.84375 -0.671875q-0.34375 -0.46875 -0.34375 -1.046875q0 -0.671875 0.375 -1.15625q0.390625 -0.5 1.15625 -0.96875q-0.96875 -0.390625 -1.5625 -1.3125q-0.578125 -0.921875 -0.578125 -2.171875q0 -1.3125 0.546875 -2.234375q0.5625 -0.9375 1.609375 -1.421875q1.0625 -0.484375 2.5625 -0.484375q0.328125 0 0.6875 0.03125q0.359375 0.015625 0.671875 0.078125q0.328125 0.0625 0.53125 0.109375l4.203125 0l0 1.3125l-2.171875 0.34375q0.3125 0.40625 0.515625 0.984375q0.203125 0.578125 0.203125 1.265625q0 1.859375 -1.265625 2.9375q-1.265625 1.078125 -3.5 1.078125q-0.53125 -0.015625 -1.0625 -0.09375q-0.46875 0.28125 -0.71875 0.609375q-0.234375 0.328125 -0.234375 0.75q0 0.3125 0.203125 0.515625q0.21875 0.203125 0.625 0.296875q0.421875 0.09375 1.0 0.09375l2.125 0q2.0 0 3.0625 0.84375q1.0625 0.828125 1.0625 2.453125q0 2.046875 -1.6875 3.140625q-1.6875 1.109375 -4.84375 1.109375zm0.078125 -1.625q1.421875 0 2.375 -0.296875q0.96875 -0.28125 1.453125 -0.8125q0.484375 -0.53125 0.484375 -1.25q0 -0.671875 -0.3125 -1.015625q-0.3125 -0.34375 -0.9375 -0.46875q-0.625 -0.125 -1.53125 -0.125l-2.015625 0q-0.765625 0 -1.34375 0.234375q-0.578125 0.25 -0.90625 0.703125q-0.3125 0.46875 -0.3125 1.140625q0 0.921875 0.78125 1.40625q0.796875 0.484375 2.265625 0.484375zm0.484375 -9.609375q1.234375 0 1.84375 -0.640625q0.609375 -0.65625 0.609375 -1.859375q0 -1.296875 -0.625 -1.9375q-0.625 -0.65625 -1.84375 -0.65625q-1.171875 0 -1.796875 0.671875q-0.625 0.65625 -0.625 1.9375q0 1.1875 0.625 1.84375q0.625 0.640625 1.8125 0.640625z" fill-rule="nonzero"/><path fill="#de8f05" d="m342.94025 20.968458l26.330688 0l0 18.425196l-26.330688 0z" fill-rule="evenodd"/></g></svg>